<svg xmlns="http://www.w3.org/2000/svg" version="1.1" xmlns:xlink="http://www.w3.org/1999/xlink" viewBox="0 0 200 200"><rect width="200" height="200" fill="url('#gradient')"></rect><defs><linearGradient id="gradient" gradientTransform="rotate(45 0.5 0.5)"><stop offset="0%" stop-color="#100e0e"></stop><stop offset="100%" stop-color="#000000"></stop></linearGradient></defs><g><g fill="#445272" transform="matrix(2.1271783035199077,0,0,2.1271783035199077,7.7192145237397085,110.80418962092325)" stroke="#1e1917" stroke-width="0.2"><path d="M9.89-8.57L9.89-6.03L4.50-6.03L4.50-2.64L10.87-2.64L10.87 0L1.07 0L1.07-14.22L10.89-14.22L10.89-11.57L4.50-11.57L4.50-8.57L9.89-8.57ZM14.91-10.57L16.40-7.66L17.93-10.57L21.35-10.57L18.56-5.42L21.48 0L18.05 0L16.39-3.13L14.76 0L11.30 0L14.23-5.42L11.46-10.57L14.91-10.57ZM32.22-5.36L32.22-5.21Q32.22-2.74 31.11-1.27Q30 0.20 28.12 0.20L28.12 0.20Q26.66 0.20 25.72-0.87L25.72-0.87L25.72 4.06L22.43 4.06L22.43-10.57L25.51-10.57L25.61-9.59Q26.55-10.76 28.10-10.76L28.10-10.76Q30.05-10.76 31.13-9.32Q32.22-7.88 32.22-5.36L32.22-5.36ZM28.93-5.06L28.93-5.41Q28.93-8.22 27.29-8.22L27.29-8.22Q26.11-8.22 25.72-7.38L25.72-7.38L25.72-3.22Q26.15-2.34 27.30-2.34L27.30-2.34Q28.88-2.34 28.93-5.06L28.93-5.06ZM38.78 0.20L38.78 0.20Q36.35 0.20 34.84-1.25Q33.34-2.71 33.34-5.03L33.34-5.03L33.34-5.30Q33.34-6.92 33.94-8.16Q34.54-9.40 35.69-10.08Q36.85-10.76 38.43-10.76L38.43-10.76Q40.65-10.76 41.94-9.38Q43.23-8.00 43.23-5.53L43.23-5.53L43.23-4.25L36.69-4.25Q36.87-3.36 37.46-2.85Q38.06-2.34 39.00-2.34L39.00-2.34Q40.57-2.34 41.45-3.44L41.45-3.44L42.95-1.66Q42.33-0.81 41.21-0.31Q40.08 0.20 38.78 0.20ZM38.41-8.22L38.41-8.22Q36.96-8.22 36.69-6.31L36.69-6.31L40.01-6.31L40.01-6.56Q40.03-7.35 39.61-7.79Q39.19-8.22 38.41-8.22ZM44.49-10.57L47.58-10.57L47.69-9.33Q48.78-10.76 50.70-10.76L50.70-10.76Q52.35-10.76 53.17-9.78Q53.98-8.79 54.01-6.81L54.01-6.81L54.01 0L50.71 0L50.71-6.67Q50.71-7.47 50.39-7.85Q50.07-8.22 49.22-8.22L49.22-8.22Q48.25-8.22 47.78-7.46L47.78-7.46L47.78 0L44.49 0L44.49-10.57ZM61.37-2.97L61.37-2.97Q61.37-3.39 60.93-3.64Q60.49-3.90 59.26-4.17Q58.03-4.44 57.23-4.89Q56.43-5.33 56.01-5.97Q55.59-6.60 55.59-7.42L55.59-7.42Q55.59-8.88 56.79-9.82Q57.99-10.76 59.93-10.76L59.93-10.76Q62.02-10.76 63.29-9.81Q64.56-8.87 64.56-7.32L64.56-7.32L61.26-7.32Q61.26-8.59 59.92-8.59L59.92-8.59Q59.40-8.59 59.05-8.31Q58.70-8.02 58.70-7.59L58.70-7.59Q58.70-7.15 59.13-6.88Q59.56-6.60 60.50-6.43Q61.45-6.25 62.16-6.01L62.16-6.01Q64.54-5.19 64.54-3.07L64.54-3.07Q64.54-1.62 63.26-0.71Q61.97 0.20 59.93 0.20L59.93 0.20Q58.57 0.20 57.51-0.29Q56.45-0.78 55.85-1.62Q55.25-2.46 55.25-3.39L55.25-3.39L58.33-3.39Q58.35-2.66 58.82-2.32Q59.29-1.98 60.02-1.98L60.02-1.98Q60.69-1.98 61.03-2.26Q61.37-2.53 61.37-2.97ZM71.19 0.20L71.19 0.20Q68.76 0.20 67.26-1.25Q65.75-2.71 65.75-5.03L65.75-5.03L65.75-5.30Q65.75-6.92 66.35-8.16Q66.95-9.40 68.11-10.08Q69.26-10.76 70.84-10.76L70.84-10.76Q73.07-10.76 74.36-9.38Q75.64-8.00 75.64-5.53L75.64-5.53L75.64-4.25L69.10-4.25Q69.28-3.36 69.87-2.85Q70.47-2.34 71.42-2.34L71.42-2.34Q72.98-2.34 73.86-3.44L73.86-3.44L75.36-1.66Q74.75-0.81 73.62-0.31Q72.49 0.20 71.19 0.20ZM70.82-8.22L70.82-8.22Q69.38-8.22 69.10-6.31L69.10-6.31L72.42-6.31L72.42-6.56Q72.44-7.35 72.02-7.79Q71.60-8.22 70.82-8.22ZM82.50-2.97L82.50-2.97Q82.50-3.39 82.06-3.64Q81.62-3.90 80.39-4.17Q79.16-4.44 78.36-4.89Q77.56-5.33 77.14-5.97Q76.72-6.60 76.72-7.42L76.72-7.42Q76.72-8.88 77.92-9.82Q79.12-10.76 81.06-10.76L81.06-10.76Q83.15-10.76 84.42-9.81Q85.69-8.87 85.69-7.32L85.69-7.32L82.39-7.32Q82.39-8.59 81.05-8.59L81.05-8.59Q80.54-8.59 80.19-8.31Q79.83-8.02 79.83-7.59L79.83-7.59Q79.83-7.15 80.26-6.88Q80.69-6.60 81.64-6.43Q82.58-6.25 83.29-6.01L83.29-6.01Q85.67-5.19 85.67-3.07L85.67-3.07Q85.67-1.62 84.39-0.71Q83.11 0.20 81.06 0.20L81.06 0.20Q79.71 0.20 78.64-0.29Q77.58-0.78 76.98-1.62Q76.39-2.46 76.39-3.39L76.39-3.39L79.46-3.39Q79.48-2.66 79.95-2.32Q80.42-1.98 81.15-1.98L81.15-1.98Q81.83-1.98 82.16-2.26Q82.50-2.53 82.50-2.97Z"></path></g></g></svg>